<?xml version="1.0" standalone="no"?><!DOCTYPE svg PUBLIC "-//W3C//DTD SVG 1.1//EN" "http://www.w3.org/Graphics/SVG/1.1/DTD/svg11.dtd"><svg class="icon" width="200px" height="200.00px" viewBox="0 0 1024 1024" version="1.1" xmlns="http://www.w3.org/2000/svg"><path d="M740.931441 681.165701c-12.485309 0-22.514491 10.029182-22.514491 22.514491l0 88.522886c0 5.730961-5.014591 10.131521-10.745553 10.131521L268.229462 802.334599c-5.730961 0-10.336198-4.502898-10.336198-10.131521L257.893264 211.431541c0-5.730961 4.707575-10.847891 10.336198-10.847891l439.441935 0c5.730961 0 10.745553 5.11693 10.745553 10.847891l0 208.259045c0 12.485309 10.029182 22.514491 22.514491 22.514491s22.514491-10.029182 22.514491-22.514491L763.445932 211.431541c0-30.59924-25.072956-55.876874-55.774535-55.876874L268.229462 155.554667c-30.59924 0-55.365181 25.277633-55.365181 55.876874l0 580.771537c0 30.59924 24.76594 55.160504 55.365181 55.160504l439.441935 0c30.59924 0 55.774535-24.561263 55.774535-55.160504l0-88.522886C763.445932 691.194883 753.41675 681.165701 740.931441 681.165701z" fill="#0e932e" /><path d="M844.395763 434.325005 844.395763 434.325005c-7.163702-7.163702-18.830302-7.163702-26.096342 0L538.915051 713.811713l-98.245053-98.245053c-7.163702-7.163702-18.830302-7.163702-26.096342 0l0 0c-7.163702 7.163702-7.163702 18.830302 0 26.096342L526.020388 753.007396c7.163702 7.163702 18.830302 7.163702 26.096342 0l0 0c0.614032-0.614032 1.228063-1.330402 1.739756-2.046772l290.641615-290.641615C851.661803 453.155307 851.661803 441.488707 844.395763 434.325005z" fill="#0e932e" /><path d="M616.078353 302.922247 354.091545 302.922247c-8.494104 0-15.35079 6.856686-15.35079 15.35079s6.856686 15.35079 15.35079 15.35079l261.986808 0c8.494104 0 15.35079-6.856686 15.35079-15.35079S624.572457 302.922247 616.078353 302.922247z" fill="#0e932e" /><path d="M629.382371 427.775335c0-8.494104-6.856686-15.35079-15.35079-15.35079L352.044773 412.424545c-8.494104 0-15.35079 6.856686-15.35079 15.35079s6.856686 15.35079 15.35079 15.35079l261.986808 0C622.525685 443.126124 629.382371 436.269438 629.382371 427.775335z" fill="#0e932e" /><path d="M354.091545 530.113932c-8.494104 0-15.35079 6.856686-15.35079 15.35079s6.856686 15.35079 15.35079 15.35079l184.209474 0c8.494104 0 15.35079-6.856686 15.35079-15.35079s-6.856686-15.35079-15.35079-15.35079L354.091545 530.113932z" fill="#0e932e" /></svg>