<svg xmlns="http://www.w3.org/2000/svg" width="249.96" height="51.5" viewBox="0 0 249.96 51.5">
  <g id="Group_159" data-name="Group 159" transform="translate(0 0.1)">
    <g id="Group_1" data-name="Group 1" transform="translate(58.566 5.311)">
      <path id="Path_1" data-name="Path 1" d="M110.079,10.31a7.726,7.726,0,0,1,3.374,6.43,6.894,6.894,0,0,1-3.119,6.111,11.305,11.305,0,0,1-3.31,1.782c-.191.127-.127.509.127,1.019a106.357,106.357,0,0,0,6.175,9.613,35.716,35.716,0,0,0,3.947,4.711,6.494,6.494,0,0,0,4.265,2.228c.446,0,.7.191.7.318s-.191.255-.637.446a6.313,6.313,0,0,1-2.037.191c-3.31,0-5.475-1.782-7.512-4.265-2.8-3.5-7.321-10.886-8.085-11.841a3.58,3.58,0,0,0-1.655-1.21,7.557,7.557,0,0,0-2.737-.191A.611.611,0,0,0,99,26.1c-.127.509-.191,7.448-.127,9.549a24.163,24.163,0,0,0,.446,4.9c.191.637.573,1.21,2.546,1.528.573.127.828.191.828.446,0,.191-.446.382-1.082.382-1.146,0-2.164-.255-4.011-.255-2.037,0-3.565.255-4.647.255-.573,0-.955-.127-.955-.382,0-.191.382-.318,1.082-.509,1.655-.318,2.292-.828,2.419-3.056.255-3.056.318-7.066.318-14.9,0-7.512-.191-10.376-.318-12.1-.127-1.528-.191-2.292-2.483-2.674-.509-.127-.955-.191-.955-.509,0-.191.255-.318.955-.318.764,0,2.037.191,4.011.191,2.037,0,4.011-.255,5.793-.255C106.2,8.4,108.3,9.037,110.079,10.31Zm-10.822-.7c-.127.064-.255.064-.318.891-.064,1.082-.064,12.477-.064,13.3s.191.955.382.955a10.327,10.327,0,0,0,1.464.064c1.591,0,4.965-.446,6.048-1.146a7.787,7.787,0,0,0,3.247-6.175c0-2.865-.891-4.9-2.292-6.175-1.464-1.337-3.438-2.164-6.684-2.164A4.774,4.774,0,0,0,99.257,9.61Z" transform="translate(-92 -8.4)" fill="#00205b"/>
      <path id="Path_2" data-name="Path 2" d="M129.3,34.268c0-3.247,1.337-6.366,4.838-8.976a11.843,11.843,0,0,1,18.843,9.358,11.42,11.42,0,0,1-6.812,10.313,12.8,12.8,0,0,1-4.9,1.082A11.956,11.956,0,0,1,129.3,34.268Zm16.933,9.676a11.488,11.488,0,0,0,3.82-9.04,11.725,11.725,0,0,0-3.183-8.53A8.74,8.74,0,0,0,140.5,23.7a8.129,8.129,0,0,0-5.538,2.61c-1.973,2.037-2.61,5.029-2.61,8.085a12.031,12.031,0,0,0,2.674,7.384,8.642,8.642,0,0,0,7,3.438A7.106,7.106,0,0,0,146.233,43.944Z" transform="translate(-105.555 -13.706)" fill="#00205b"/>
      <path id="Path_3" data-name="Path 3" d="M188.916,24.273a.805.805,0,0,1,.446.637c-.064.828.064,2.61.064,2.928.064.573-.127.955-.255.955-.191,0-.255-.255-.318-.573a5.053,5.053,0,0,0-1.973-3.056,8.849,8.849,0,0,0-5.538-1.528,9.412,9.412,0,0,0-6.621,2.674,11.931,11.931,0,0,0-2.8,7.957,11.715,11.715,0,0,0,3.183,7.957,10.115,10.115,0,0,0,6.812,2.865,7.506,7.506,0,0,0,4.329-.955,7.925,7.925,0,0,0,2.992-3.5c.191-.446.255-.637.446-.637.127,0,.191.382.191.7a9.093,9.093,0,0,1-.573,2.355,1.975,1.975,0,0,1-.573,1.146,13.569,13.569,0,0,1-7.321,1.846c-4.647,0-7.066-1.337-9.422-3.438A11.339,11.339,0,0,1,168.8,34.65a11.1,11.1,0,0,1,4.265-8.785A13.807,13.807,0,0,1,181.532,23,24.234,24.234,0,0,1,188.916,24.273Z" transform="translate(-119.91 -13.706)" fill="#00205b"/>
      <path id="Path_4" data-name="Path 4" d="M206.1,27.047c0-1.464-.255-2.228-1.782-2.546-.446-.064-.828-.255-.828-.446s.446-.255.828-.255c.637,0,1.846.127,2.992.127.955,0,2.8-.127,3.247-.127s.764.064.764.255c0,.255-.446.446-.764.446-1.21.255-1.591.7-1.655,1.846,0,.764-.064,6.557-.064,6.939.064.318.064.637.318.637h9.867a26.514,26.514,0,0,0,3.756-.064c.255-.064.318-.191.382-.446.064-.509.064-4.965,0-6.175-.064-2.037-.446-2.546-1.719-2.674-.446-.064-.891-.255-.891-.446,0-.255.382-.318.891-.318,1.591,0,1.719.127,3.247.127,1.21,0,1.973-.127,2.865-.127.637,0,.955.064.955.255,0,.127-.255.318-.764.382-1.655.255-1.91.955-1.91,2.355,0,.891-.064,6.175,0,8.53s.064,5.793.064,6.875c0,1.973.191,2.355,2.1,2.8.446.064.764.191.764.446,0,.191-.318.255-.828.255-.637,0-2.674-.127-3.438-.127-1.019,0-2.483.127-2.992.127-.637,0-.955-.064-.955-.255,0-.255.382-.318.7-.446,1.4-.255,1.719-.446,1.846-1.846.064-.637.064-3.438.064-7.257,0-.446-.255-.764-.382-.764-.637-.064-2.8-.127-7.7-.127h-6.111c-.191,0-.318.255-.318.7,0,7.321.064,7.766.191,8.085.127.7.573.891,1.655,1.146.509.127.828.255.828.446,0,.255-.637.255-.828.255-.7,0-2.228-.127-3.374-.127-1.019,0-2.292.127-2.865.127-.382,0-.955-.064-.955-.318,0-.127.446-.318.828-.382,1.591-.318,1.655-.764,1.719-1.719s.127-3.247.127-8.658V27.047Z" transform="translate(-132.447 -13.996)" fill="#00205b"/>
      <path id="Path_5" data-name="Path 5" d="M245.609,24.218c0-.191.255-.318.573-.318.955,0,2.228.127,3.119.127,2.037,0,6.43-.064,7.894-.064,1.337,0,2.546-.064,2.865-.064.191,0,.318.318.382.573.064.382.191,2.037.255,2.674.064.382-.064.637-.255.637-.127,0-.255-.255-.446-.573-.7-1.591-1.337-2.164-1.91-2.228a63.337,63.337,0,0,0-7-.127c-.255,0-.382.064-.382.509,0,1.91-.064,7.257,0,8.276,0,.191.064.382.255.382h4.074a7.331,7.331,0,0,0,3.056-.382c.255-.127.509-.446.891-1.337.064-.255.255-.573.446-.573.127,0,.191.191.191.637,0,.191-.191,1.591-.255,2.1a11.435,11.435,0,0,0,0,2.1c.064.318-.064.7-.191.7-.191,0-.255-.255-.509-.764-.255-.573-.446-1.337-1.019-1.4-.573-.127-1.655-.255-6.748-.255-.064,0-.255.127-.255.446-.064,1.146.064,6.812.127,7.512.064,1.337.127,1.91.955,2.037.446.064,1.846.127,3.82.127,3.438,0,3.756-.191,4.329-.637a8.351,8.351,0,0,0,1.591-2.164c.191-.382.382-.637.509-.637.191,0,.255.318,0,.955-.127.382-.7,2.355-.828,2.8a.756.756,0,0,1-.637.509c-4.011,0-7.766-.127-11.2-.127-1.21,0-2.8.127-3.247.127s-.955,0-.955-.255c0-.191.382-.318.764-.382,1.273-.255,1.846-.637,1.91-2.037.127-2.228.127-6.366.127-9.867V27.083c0-1.846-.573-2.228-1.846-2.546a.812.812,0,0,1-.446-.318Z" transform="translate(-147.638 -14.033)" fill="#00205b"/>
      <path id="Path_6" data-name="Path 6" d="M278.06,27.738a4.949,4.949,0,0,0,2.355,3.947c1.337.891,2.61,1.655,3.947,2.483,1.4.955,3.756,2.546,3.756,5.475,0,3.947-3.692,6.366-7.448,6.366a13.6,13.6,0,0,1-5.029-1.019c-.446-.127-.573-.764-.7-1.337-.064-.637-.191-1.337-.255-2.546-.064-.446,0-.764.191-.764s.446.318.637.891A5.42,5.42,0,0,0,277.3,44.1a6.017,6.017,0,0,0,3.565,1.146c2.928,0,4.647-1.846,4.647-4.265,0-2.546-1.4-3.756-4.584-5.666-2.674-1.591-5.156-3.5-5.156-6.557A5.642,5.642,0,0,1,278.06,24.3a8.538,8.538,0,0,1,4.774-1.4,11.131,11.131,0,0,1,3.883.764.536.536,0,0,1,.446.446,21.183,21.183,0,0,0,.255,2.61c.064.509.064.828-.127.828s-.318-.255-.446-.7a4.7,4.7,0,0,0-1.528-2.292,4.782,4.782,0,0,0-3.056-1.019C280.352,23.6,278.06,24.619,278.06,27.738Z" transform="translate(-158.381 -13.669)" fill="#00205b"/>
      <path id="Path_7" data-name="Path 7" d="M314.251,23.687a7.725,7.725,0,0,0,2.992-.318c.255-.127.446-.255.573-.191s.127.255.064.446A15.84,15.84,0,0,0,317.625,27c0,.509-.064.891-.255.891-.127,0-.255-.318-.318-.573a7.421,7.421,0,0,0-.7-2.1c-.255-.382-.382-.573-1.528-.573h-5.538c-.191,0-.255.446-.255.637l-.064,12.286c0,2.037,0,4.52.127,5.6.127,1.019.637,1.4,1.91,1.655.509.064.828.255.828.446s-.573.255-.891.255c-1.146,0-1.91-.191-3.374-.191-1.91,0-2.8.191-3.374.191-.637,0-.891-.127-.891-.255,0-.191.318-.318.828-.446,1.719-.255,1.973-.637,2.037-2.419.127-3.5.255-16.742.255-17.124,0-.191-.064-.573-.255-.637h-2.992c-1.528,0-2.674.064-3.183.064-.7.064-1.273.573-1.655,2.419-.064.446-.255.637-.382.637-.191,0-.255-.255-.255-.7,0-.764.382-2.355.382-3.565a.822.822,0,0,1,.127-.509c.127-.064.255,0,.446.191a2.254,2.254,0,0,0,1.21.255c.509.064,4.329.127,8.212.127h6.175Z" transform="translate(-166.753 -13.692)" fill="#00205b"/>
      <path id="Path_8" data-name="Path 8" d="M331.409,24.218c0-.191.255-.318.573-.318.955,0,2.228.127,3.119.127,2.037,0,6.43-.064,7.894-.064,1.337,0,2.546-.064,2.865-.064.191,0,.318.318.382.573.064.382.191,2.037.255,2.674.064.382-.064.637-.255.637-.127,0-.255-.255-.446-.573-.7-1.591-1.337-2.164-1.91-2.228a63.339,63.339,0,0,0-7-.127c-.255,0-.382.064-.382.509,0,1.91-.064,7.257,0,8.276,0,.191.064.382.255.382h4.074a7.331,7.331,0,0,0,3.056-.382c.255-.127.509-.446.891-1.337.064-.255.255-.573.446-.573.127,0,.191.191.191.637,0,.191-.191,1.591-.255,2.1a11.424,11.424,0,0,0,0,2.1c.064.318-.064.7-.191.7-.191,0-.255-.255-.509-.764-.255-.573-.446-1.337-1.019-1.4-.573-.127-1.655-.255-6.748-.255-.064,0-.255.127-.255.446-.064,1.146.064,6.812.127,7.512.064,1.337.127,1.91.955,2.037.446.064,1.846.127,3.82.127,3.438,0,3.756-.191,4.329-.637a8.351,8.351,0,0,0,1.591-2.164c.191-.382.382-.637.509-.637.191,0,.255.318,0,.955-.127.382-.7,2.355-.828,2.8a.756.756,0,0,1-.637.509c-4.011,0-7.766-.127-11.2-.127-1.21,0-2.8.127-3.247.127s-.955,0-.955-.255c0-.191.382-.318.764-.382,1.273-.255,1.846-.637,1.91-2.037.127-2.228.127-6.366.127-9.867V27.083c0-1.846-.573-2.228-1.846-2.546-.255-.064-.446-.191-.446-.318Z" transform="translate(-178.818 -14.033)" fill="#00205b"/>
      <path id="Path_9" data-name="Path 9" d="M364.247,40.26a18.87,18.87,0,0,0,.191,3.565c.064.764.637,1.146,1.655,1.337.318.064.764.191.764.382s-.446.318-.828.318c-.828,0-2.228-.127-3.565-.127s-2.037.127-2.737.127c-.573,0-.828-.127-.828-.255,0-.191.255-.318.828-.446,1.337-.255,1.719-.637,1.782-1.846.127-1.973.127-4.392.127-9.358,0-4.774,0-6.621-.064-7.575-.064-1.019-.382-1.528-1.846-1.782-.382-.064-.7-.255-.7-.382,0-.191.446-.255.7-.255.509,0,1.4.127,2.674.127,1.655,0,3.247-.191,4.9-.191a8.192,8.192,0,0,1,5.156,1.337,4.789,4.789,0,0,1,2.292,4.011c0,2.8-1.91,4.456-4.265,5.22-.255.064-.255.255-.064.637a57.575,57.575,0,0,0,4.138,6.048,28.43,28.43,0,0,0,2.61,2.928,4.452,4.452,0,0,0,2.928,1.337c.446,0,.318.255,0,.446a3.855,3.855,0,0,1-1.782.255c-2.483,0-3.629-1.082-5.156-2.674-1.846-1.973-4.456-6.111-5.284-7.194a2.691,2.691,0,0,0-1.528-.764,13.353,13.353,0,0,0-1.719-.064c-.191,0-.318.318-.318.637v4.2Zm.446-15.406c-.064.064-.255.255-.255.955-.064.573-.127,7.448-.127,8.021,0,.191.064.7.318.7.573.064,1.337.064,2.1.064A7.9,7.9,0,0,0,370.1,33.7a4.446,4.446,0,0,0,2.1-3.82,5.146,5.146,0,0,0-1.273-3.5,5.74,5.74,0,0,0-4.265-1.782A6.445,6.445,0,0,0,364.693,24.855Z" transform="translate(-188.994 -14.033)" fill="#00205b"/>
    </g>
    <g id="Group_4" data-name="Group 4" transform="translate(93.442 -0.1)">
      <g id="Group_2" data-name="Group 2" transform="translate(113.387)">
        <path id="Path_10" data-name="Path 10" d="M329.483,7.31a4.2,4.2,0,0,1-1.591,3.374,2.578,2.578,0,0,1-1.337.446c-1.082,0-1.655-1.146-1.655-2.037a4.251,4.251,0,0,1,1.528-3.183,2.907,2.907,0,0,1,1.4-.509A1.707,1.707,0,0,1,329.483,7.31Zm-2.61-.509a5.845,5.845,0,0,0-.891,2.8c0,.509.191.891.7.891.255,0,.509-.127.891-.7a6.915,6.915,0,0,0,.955-2.928c0-.446-.127-.891-.637-.891C327.637,5.973,327.255,6.164,326.873,6.8Z" transform="translate(-324.9 -1.899)" fill="#00205b"/>
        <path id="Path_11" data-name="Path 11" d="M336.4,3.529c.255,0,.318.064.318.127a.553.553,0,0,1-.318.446c-.127,0-.764.064-1.019.064-.064,0-.318.064-.318.191-.637,2.928-1.019,4.456-1.273,5.475a2.629,2.629,0,0,1-1.4,1.91,2.872,2.872,0,0,1-1.4.509c-.318,0-.891-.255-.891-.7a.849.849,0,0,1,.255-.637c.064,0,.382-.127.446-.064a1.731,1.731,0,0,0,.955.573c.318,0,.573-.064.891-1.146.382-1.464,1.273-5.411,1.337-5.984,0-.064,0-.127-.064-.127h-.891c-.064,0-.127-.127-.127-.191,0-.191.255-.446.255-.446.127,0,.637-.064.891-.064.064,0,.127-.127.191-.127a5.754,5.754,0,0,1,1.91-3.056A2.142,2.142,0,0,1,337.293-.1c.891,0,1.273.446,1.273.955a.778.778,0,0,1-.255.573.9.9,0,0,1-.382.127c-.064,0-.255-.064-.255-.191-.064-.573-.255-.891-.764-.891a1.033,1.033,0,0,0-.7.509A8.866,8.866,0,0,0,335.32,3.4a.222.222,0,0,0,.064.127Z" transform="translate(-326.79 0.1)" fill="#00205b"/>
      </g>
      <g id="Group_3" data-name="Group 3" transform="translate(0 0.382)">
        <path id="Path_12" data-name="Path 12" d="M147.3,1.264c.637,0,1.019.127,1.846.127.7,0,1.082-.064,1.591-.064.446,0,.637.127.637.255s-.064.255-.573.382c-.637.127-.955.255-.955,1.082V7.057A3.554,3.554,0,0,0,150.8,9.6a3.2,3.2,0,0,0,1.846.637c1.337,0,2.483-.382,2.737-2.865.127-1.528.064-3.947.064-4.2-.064-.7-.191-1.082-1.146-1.21-.191-.127-.382-.255-.382-.446s.255-.255.573-.255c.509,0,.446.064,1.019.064.828,0,1.591-.127,2.037-.127.318,0,.509.127.509.191,0,.191-.191.318-.509.382-.764.191-1.019.446-1.019,1.273,0,.573-.127,1.719-.127,2.992-.064,1.719-.382,3.374-1.528,4.265a3.815,3.815,0,0,1-2.546.828,4.071,4.071,0,0,1-2.674-.891c-.891-.764-1.337-1.782-1.337-4.329,0-.573,0-2.992-.064-3.374,0-.191-.064-.573-.955-.764-.255-.064-.509-.255-.509-.318C146.731,1.327,146.985,1.264,147.3,1.264Z" transform="translate(-146.785 -0.754)" fill="#00205b"/>
        <path id="Path_13" data-name="Path 13" d="M167.109,1.3c.509,0,1.91.127,2.355.127.191,0,.255.064.446.255.382.509.891.955,1.4,1.591.573.637,3.31,3.629,4.392,4.774,0,0,.127.064.127-.064,0-1.146.127-3.883,0-4.9-.064-.637-.318-.955-1.273-1.21-.191-.064-.446-.127-.446-.318,0-.255.446-.255.509-.255.7,0,1.273.064,1.782.064.446,0,.955-.064,1.464-.064.191,0,.446.064.446.255,0,.127-.127.191-.446.318-.828.255-1.019.509-1.082,1.337s-.191,3.5-.191,4.711.064,2.546.064,2.737c0,.318-.064.573-.255.573a1.965,1.965,0,0,1-.637-.318c-.382-.446-1.21-1.528-2.355-2.8-.955-1.082-2.419-2.865-3.692-4.138-.064-.064-.191-.064-.191.064,0,.7-.127,3.756,0,5.156.064.7.573.955,1.21,1.21.255.064.382.191.382.318,0,.191-.318.255-.509.255-.064,0-.7-.064-1.273-.064-.509,0-1.4.127-1.846.127-.255,0-.509-.064-.509-.255,0-.127.064-.191.509-.318,1.019-.255,1.146-.637,1.21-1.146s.191-2.483.191-4.329a9.133,9.133,0,0,0-.064-1.719,1.9,1.9,0,0,0-.764-1.019,2.018,2.018,0,0,0-.891-.318c-.382-.064-.573-.191-.573-.318C166.6,1.427,166.855,1.3,167.109,1.3Z" transform="translate(-153.986 -0.791)" fill="#00205b"/>
        <path id="Path_14" data-name="Path 14" d="M189.082,1.264c.191,0,1.655.064,2.228.064a18.333,18.333,0,0,0,2.037-.127c.127,0,.446.127.446.255s-.255.318-.509.382c-1.019.318-1.082.446-1.146,1.21-.064.446-.064,1.528-.064,2.928V8.712c.064,1.21.191,1.4,1.21,1.591.255.064.509.255.509.446,0,.127-.191.191-.446.191-.573,0-1.146-.064-2.037-.064-.637,0-1.719.127-2.1.127-.318,0-.509-.064-.509-.255s.318-.318.509-.382c1.019-.255,1.21-.509,1.21-1.273,0-.382.064-1.019.064-1.719V3.364a1.34,1.34,0,0,0-1.21-1.4c-.382-.127-.446-.255-.446-.382C188.827,1.391,188.891,1.264,189.082,1.264Z" transform="translate(-162.017 -0.754)" fill="#00205b"/>
        <path id="Path_15" data-name="Path 15" d="M200.6,1.264c.382,0,1.273.127,1.91.127s1.273-.064,1.719-.064.573.127.573.255-.127.255-.509.318c-.828.191-.764.509-.573,1.019.255.7.573,1.528,1.019,2.61a24.575,24.575,0,0,0,1.273,2.737c.064.064.191.191.255-.064.255-.573,1.655-4.011,1.973-4.965s.255-1.21-.573-1.4c-.191-.064-.446-.191-.446-.318a.527.527,0,0,1,.509-.255c.573,0,.828.064,1.337.064.764,0,1.4-.127,1.719-.127.255,0,.446.064.446.191,0,.191-.255.318-.573.382-.7.191-1.082.509-1.591,1.464-.509.891-1.019,2.292-1.719,3.82-1.019,2.228-1.337,3.31-1.464,3.565-.064.255-.382.573-.573.573-.127,0-.255-.255-.318-.446s-.382-1.273-.764-2.228c-.509-1.146-1.973-4.647-2.61-5.857a1.866,1.866,0,0,0-1.273-.955c-.191-.064-.446-.191-.446-.318C200.027,1.264,200.346,1.264,200.6,1.264Z" transform="translate(-166.087 -0.754)" fill="#00205b"/>
        <path id="Path_16" data-name="Path 16" d="M224.711,5.62c.891,0,1.019-.127,1.273-.828.127-.191.255-.446.382-.446.191,0,.191.191.191.509,0,.127-.064.446-.064.955,0,.637.064.7.064,1.146s-.127.573-.318.573c-.127,0-.255-.191-.318-.446-.191-.446-.255-.637-.446-.7a8.644,8.644,0,0,0-1.846-.064c-.064,0-.191.127-.191.318A15.877,15.877,0,0,0,223.5,9.63a.652.652,0,0,0,.382.318,3.941,3.941,0,0,0,1.273.255,6.755,6.755,0,0,0,1.337-.127c.637-.191.891-.318,1.528-1.273.191-.255.318-.446.446-.446.191,0,.191.382.191.446a7.838,7.838,0,0,1-.573,1.846c-.064.127-.191.191-.7.191-1.973,0-1.973-.127-4.838-.127-.7,0-1.4.127-1.91.127-.255,0-.637-.064-.637-.255s.255-.318.509-.382c1.21-.255,1.21-.509,1.273-1.273.064-.573.064-1.91.064-3.31,0-.955,0-2.037-.064-2.928,0-.446-.127-.764-1.019-.955-.255-.064-.509-.191-.509-.382,0-.127.255-.255.573-.255.382,0,1.082.064,1.846.064a43.97,43.97,0,0,0,4.647-.064.284.284,0,0,1,.255.191c0,.637.127,1.464.127,1.782,0,.255-.127.382-.191.382-.127,0-.255-.064-.446-.446-.382-.764-.637-1.082-1.273-1.146-.318,0-.509-.064-2.1-.064-.064,0-.191.191-.191.255-.064.318-.064,2.419-.064,3.119,0,.127.064.191.255.255A2.316,2.316,0,0,0,224.711,5.62Z" transform="translate(-173.392 -0.718)" fill="#00205b"/>
        <path id="Path_17" data-name="Path 17" d="M237.173,1.364h1.21c.509,0,1.337-.064,3.056-.064a4.007,4.007,0,0,1,2.737.764,2.241,2.241,0,0,1,.764,1.655,2.456,2.456,0,0,1-1.782,2.292c-.064,0-.127.127-.064.127a19.157,19.157,0,0,0,2.1,3.119,3.562,3.562,0,0,0,1.719,1.146c.318.064.382.127.382.318,0,.255-.509.382-1.273.382a3.287,3.287,0,0,1-2.546-1.273c-.382-.446-1.528-2.292-1.91-2.8a1.716,1.716,0,0,0-1.273-.573.411.411,0,0,0-.318.127.234.234,0,0,0-.064.191c0,.446,0,1.528.064,2.674,0,.637.382.7.955.891.191.064.446.127.446.318,0,.255-.382.318-.573.318-.7,0-1.146-.064-1.655-.064-.637,0-1.273.127-1.973.127-.382,0-.573-.127-.573-.255s.191-.318.509-.382c.955-.255,1.082-.446,1.146-1.337,0-.446.127-2.228.127-4.2V2.955c-.064-.446-.064-.764-1.146-.955-.318-.064-.509-.191-.509-.318C236.6,1.427,236.855,1.364,237.173,1.364ZM240.1,2a.35.35,0,0,0-.191.318c0,.191-.064,3.183-.064,3.374,0,.127.064.255.191.255a5.972,5.972,0,0,0,2.292-.382,2.057,2.057,0,0,0,.891-1.591,2.184,2.184,0,0,0-2.483-2.037A1.047,1.047,0,0,0,240.1,2Z" transform="translate(-179.424 -0.791)" fill="#00205b"/>
        <path id="Path_18" data-name="Path 18" d="M262.139,1.218c.127,0,.191.255.191.509V3.064c-.064.382-.255.446-.318.446-.191,0-.255-.255-.318-.509a2.623,2.623,0,0,0-.7-1.21,1.917,1.917,0,0,0-1.273-.446A1.677,1.677,0,0,0,257.937,3a2.074,2.074,0,0,0,1.273,1.655c.7.382,1.273.637,1.846,1.019a2.779,2.779,0,0,1,1.591,2.483,2.656,2.656,0,0,1-1.273,2.164,4.522,4.522,0,0,1-2.355.637,5.1,5.1,0,0,1-2.674-.637c-.191-.127-.191-.318-.255-.446,0-.255-.191-1.273-.191-1.591,0-.382.127-.573.318-.573s.255.255.318.446c.127.255.318.7.509,1.019a2.719,2.719,0,0,0,2.164,1.21,1.559,1.559,0,0,0,1.719-1.528c0-.828-.446-1.273-1.21-1.719-.637-.382-1.21-.7-1.655-.955a3.159,3.159,0,0,1-1.719-2.546c0-1.591,1.273-2.737,3.438-2.737A14.018,14.018,0,0,1,262.139,1.218Z" transform="translate(-186.438 -0.645)" fill="#00205b"/>
        <path id="Path_19" data-name="Path 19" d="M271.682,1.264c.191,0,1.655.064,2.228.064a18.332,18.332,0,0,0,2.037-.127c.127,0,.446.127.446.255s-.255.318-.509.382c-1.019.318-1.082.446-1.146,1.21-.064.446-.064,1.528-.064,2.928V8.712c.064,1.21.191,1.4,1.21,1.591.255.064.509.255.509.446,0,.127-.191.191-.446.191-.573,0-1.146-.064-2.037-.064-.637,0-1.719.127-2.1.127-.318,0-.509-.064-.509-.255s.318-.318.509-.382c1.019-.255,1.21-.509,1.21-1.273,0-.382.064-1.019.064-1.719V3.364c-.064-.891-.446-1.21-1.273-1.4-.382-.127-.446-.255-.446-.382C271.427,1.391,271.491,1.264,271.682,1.264Z" transform="translate(-192.034 -0.754)" fill="#00205b"/>
        <path id="Path_20" data-name="Path 20" d="M290.021,1.073c2.355,0,2.546-.127,3.119-.509.064-.064.318.064.318.318a15.144,15.144,0,0,0,.064,2.037c0,.318-.191.446-.318.446s-.255-.127-.318-.382c-.382-1.082-.7-1.146-1.146-1.21-.446,0-1.591,0-2.292.064-.064,0-.127.191-.191.318-.064.318-.064,2.674-.064,4.774a14.51,14.51,0,0,0,.127,2.228c.127.509.318.573,1.21.828.382.064.509.191.509.382,0,.127-.318.255-.573.255-.891,0-1.082-.064-2.1-.064-.573,0-1.655.127-2.228.127-.318,0-.509-.127-.509-.318s.318-.255.573-.318c1.21-.318,1.21-.573,1.21-1.337.064-1.846.127-4.011.127-6.493,0-.064-.064-.255-.191-.255a11.3,11.3,0,0,0-2.1-.127,1.565,1.565,0,0,0-1.082.828c-.255.382-.318.573-.509.573s-.255-.255-.255-.446c0-.382.255-1.4.255-1.91A.411.411,0,0,1,283.973.5c.127,0,.318.191.382.255.191.191.637.318,2.865.318h2.8Z" transform="translate(-196.432 -0.5)" fill="#00205b"/>
        <path id="Path_21" data-name="Path 21" d="M303.039,1.3c.446,0,1.464.127,2.1.127.7,0,1.019-.064,1.464-.064.255,0,.509.127.509.255,0,.191-.191.318-.446.382-.637.127-.573.446-.446.764C306.413,3.21,307.3,4.8,308,6.011c.064.064.191.064.191,0,.127-.191,1.528-2.674,1.846-3.374.191-.446.127-.509-.446-.7-.382-.127-.446-.191-.446-.318s.191-.255.509-.255c.509,0,.573.064,1.21.064.318,0,1.528-.064,1.655-.064.191,0,.509.064.509.191,0,.255-.318.382-.509.382-1.019.191-1.146.446-1.782,1.273A22.629,22.629,0,0,0,308.7,6.584a3.175,3.175,0,0,0-.191.764V9.512c.064.509.318.7,1.019.891.318.064.573.127.573.318,0,.127-.191.255-.573.255-.828,0-.764-.064-1.591-.064-.573,0-1.655.127-2.419.127-.382,0-.573-.064-.573-.255,0-.064.127-.255.446-.318,1.082-.255,1.337-.509,1.337-.828,0-.382.064-1.655.064-2.037a1.887,1.887,0,0,0-.127-.891,27.273,27.273,0,0,0-1.973-3.5c-.573-.891-.764-1.146-1.655-1.337-.318-.064-.446-.191-.446-.382C302.529,1.427,302.72,1.3,303.039,1.3Z" transform="translate(-203.402 -0.791)" fill="#00205b"/>
      </g>
    </g>
    <g id="Group_9" data-name="Group 9" transform="translate(0 0.982)">
      <path id="Path_22" data-name="Path 22" d="M5.284,3.255h0L3.5,3.573S5.411,7.839,5.538,8.03V21.907a1.388,1.388,0,0,0-.382.064l-1.146.191v1.464C3.374,23.69,0,24.135,0,24.135l.573,1.528c.318.764,1.21,2.674,1.528,3.247a25.048,25.048,0,0,0-.446,3.82l-.064,1.591,1.528-.191s3.056-.318,4.2-.446A28.79,28.79,0,0,0,9.485,38.14,32.514,32.514,0,0,0,24.572,51.254l1.719.764,1.719-.764A32.514,32.514,0,0,0,43.1,38.14a28.79,28.79,0,0,0,2.164-4.456c.764.064,4.2.446,4.2.446h0l1.528.191-.064-1.528a25.049,25.049,0,0,0-.446-3.82c.573-1.21,1.273-2.61,1.528-3.247l.573-1.528-2.164-.318s-1.146-.191-1.846-.255V22.162l-1.146-.191a1.364,1.364,0,0,1-.382-.064V8.03c.127-.255,2.037-4.456,2.037-4.456L47.3,3.255A151.047,151.047,0,0,0,26.291,1.6,152.252,152.252,0,0,0,5.284,3.255Z" transform="translate(0 -1.6)" fill="#fff"/>
      <path id="Path_23" data-name="Path 23" d="M52.291,25.008l-1.4-.191c-1.019-.127-2.292-.318-3.883-.509V8.329c.127-.255,1.719-3.883,1.719-3.883l-1.019-.191A148.039,148.039,0,0,0,26.827,2.6,149.539,149.539,0,0,0,5.883,4.255l-1.019.191S6.456,8.011,6.584,8.329V24.308c-1.591.191-2.865.382-3.883.509l-1.4.191.318.828c.255.764,1.273,2.737,1.591,3.374a24.08,24.08,0,0,0-.446,3.947v.828l.828-.127c1.146-.127,2.8-.318,4.647-.509a29.747,29.747,0,0,0,2.292,4.838A32.6,32.6,0,0,0,25.3,51.045l1.146.509.318.127,1.464-.7a32.205,32.205,0,0,0,14.9-12.859,29.747,29.747,0,0,0,2.292-4.838h0c1.91.191,3.5.382,4.647.509l.828.127v-.828a35.536,35.536,0,0,0-.446-3.947c.318-.637,1.273-2.61,1.591-3.374Z" transform="translate(-0.472 -1.963)" fill="#003b71"/>
      <path id="Path_24" data-name="Path 24" d="M7.129,37.8c-1.782.191-3.247.446-4.329.573.318.891,1.655,3.5,1.655,3.5a24.514,24.514,0,0,0-.509,4.074c1.082-.127,2.674-.318,4.52-.509A25.342,25.342,0,0,1,7.129,37.8Zm44.752.573c-1.082-.127-2.546-.382-4.329-.573v.064A25.342,25.342,0,0,1,46.216,45.5c1.91.191,3.438.382,4.52.509a24.514,24.514,0,0,0-.509-4.074C50.226,41.874,51.563,39.264,51.881,38.373Z" transform="translate(-1.018 -14.755)" fill="#ffd100"/>
      <path id="Path_25" data-name="Path 25" d="M40.545,10.864a7.487,7.487,0,0,0-3.82,13.941c2.674.064,5.093.127,7.193.255a7.495,7.495,0,0,0-3.374-14.2ZM36.152,33.845H28.768a7.6,7.6,0,0,0-3.82,6.493,7.512,7.512,0,1,0,15.024,0A7.827,7.827,0,0,0,36.152,33.845ZM31.824,18.312a7.512,7.512,0,1,0-15.024,0A7.4,7.4,0,0,0,20.938,25c2.1-.127,4.52-.191,7.193-.255A7.518,7.518,0,0,0,31.824,18.312Z" transform="translate(-6.105 -4.943)" fill="#ffd100"/>
      <path id="Path_26" data-name="Path 26" d="M37.366,60.232a7.066,7.066,0,1,1,7.066-7.066A7.091,7.091,0,0,1,37.366,60.232Z" transform="translate(-11.011 -17.772)" fill="#003b71"/>
      <path id="Path_27" data-name="Path 27" d="M50.066,25.632a7.066,7.066,0,1,1,7.066-7.066A7.091,7.091,0,0,1,50.066,25.632Z" transform="translate(-15.627 -5.198)" fill="#003b71"/>
      <path id="Path_28" data-name="Path 28" d="M24.566,25.632a7.066,7.066,0,1,1,7.066-7.066A7.091,7.091,0,0,1,24.566,25.632Z" transform="translate(-6.36 -5.198)" fill="#003b71"/>
      <path id="Path_29" data-name="Path 29" d="M31.468,18.784A6.684,6.684,0,1,0,23.7,25.341c.828-.064,1.782-.064,2.674-.064A6.7,6.7,0,0,0,31.468,18.784ZM41.017,12.1a6.685,6.685,0,0,0-1.591,13.177c.955,0,1.846.064,2.674.064A6.669,6.669,0,0,0,41.017,12.1ZM34.333,34.317h-2.8a6.684,6.684,0,1,0,2.8,0Z" transform="translate(-6.578 -5.416)" fill="#fff"/>
      <path id="Path_30" data-name="Path 30" d="M30.7,18.847a.274.274,0,0,0,.255-.255v-.446a.274.274,0,0,0-.255-.255h-.446v-1.4a.274.274,0,0,0-.255-.255l-.637-.064a2.767,2.767,0,0,0,.255.446v6.557a4.827,4.827,0,0,1-.509-.955V15.727a5.892,5.892,0,0,1-1.782.191c-.891-.127-.764-.318-1.464-.318a1.339,1.339,0,0,0-.764.191,1.339,1.339,0,0,0-.764-.191c-.7,0-.573.255-1.464.318a4.245,4.245,0,0,1-1.782-.191v6.493a4.827,4.827,0,0,1-.509.955V16.619a1.026,1.026,0,0,0,.255-.446l-.573.064a.274.274,0,0,0-.255.255v1.4h-.446a.274.274,0,0,0-.255.255v.446a.274.274,0,0,0,.255.255H20V21.52h-.446a.274.274,0,0,0-.255.255v.446a.274.274,0,0,0,.255.255H20v1.273a.274.274,0,0,0,.255.255l3.947-.191a3.112,3.112,0,0,0,.828.064,2.872,2.872,0,0,0,.828-.064L29.8,24a.274.274,0,0,0,.255-.255V22.475H30.5a.274.274,0,0,0,.255-.255v-.446a.274.274,0,0,0-.255-.255h-.446V18.847Zm-7.7,3.565a3.277,3.277,0,0,1-1.146-.064v-5.92a3.848,3.848,0,0,0,1.21,0,3.77,3.77,0,0,0,.955-.255.818.818,0,0,1,.446-.064h.191a.772.772,0,0,1,.318.064v5.92a.944.944,0,0,0-.446-.064C23.756,22.093,23.883,22.284,22.992,22.412Zm4.456,0c-.891-.127-.764-.318-1.464-.318a.944.944,0,0,0-.446.064v-5.92a.772.772,0,0,1,.318-.064h.191a.818.818,0,0,1,.446.064,3.77,3.77,0,0,0,.955.255,7.625,7.625,0,0,0,1.21,0v5.92A7.672,7.672,0,0,1,27.448,22.412Z" transform="translate(-7.014 -6.688)" fill="#003b71"/>
      <g id="Group_6" data-name="Group 6" transform="translate(21.453 2.037)">
        <g id="Group_5" data-name="Group 5" transform="translate(0 0)">
          <path id="Path_31" data-name="Path 31" d="M33.764,8.083c.127-.064.191-.064.255-.127s.127-.064.191-.127a.062.062,0,0,0,.064-.064V5.346l-.064-.064c-.064,0-.064-.064-.191-.064-.064,0-.127-.064-.255-.064V5.091h.764c0-.127.127-.127.191-.127A.641.641,0,0,0,34.91,4.9V7.765l.064.064c.064,0,.064.064.191.064.064.064.127.064.255.127v.064H33.7C33.764,8.147,33.764,8.147,33.764,8.083Z" transform="translate(-33.7 -4.836)" fill="#ffd100"/>
          <path id="Path_32" data-name="Path 32" d="M37.327,5.882a.383.383,0,0,1,.064-.255.483.483,0,0,1,.127-.255l.191-.191.191-.191c.064-.064.191-.064.255-.127.127,0,.191-.064.318-.064s.191,0,.255.064a.483.483,0,0,1,.255.127l.191.191c.064.064.064.127.127.191,0,.064.064.127.064.255a.383.383,0,0,1-.064.255c0,.064-.064.127-.127.191l-.191.191a2.538,2.538,0,0,1-.255.191,2.538,2.538,0,0,1,.255.191l.191.191c.064.064.064.127.127.191a.234.234,0,0,1,.064.191v.509a.483.483,0,0,1-.127.255.879.879,0,0,0-.191.255l-.191.191a.331.331,0,0,1-.255.127.383.383,0,0,1-.255.064h-.509c-.064,0-.127-.064-.255-.064-.064-.064-.127-.064-.191-.127s-.127-.127-.127-.191a.234.234,0,0,1-.064-.191V7.537c0-.064.064-.127.064-.191.064-.064.064-.127.127-.191l.191-.191a2.538,2.538,0,0,1,.255-.191,2.538,2.538,0,0,1-.255-.191l-.191-.191c-.064-.064,0-.191,0-.255A.383.383,0,0,1,37.327,5.882ZM37.837,7.6a.574.574,0,0,0,.064.318.483.483,0,0,0,.127.255l.127.127a.234.234,0,0,0,.191.064A.383.383,0,0,0,38.6,8.3l.191-.191a.477.477,0,0,0,.064-.318.481.481,0,0,0-.064-.255c0-.064-.064-.127-.127-.191l-.191-.191a.848.848,0,0,0-.318-.191c-.064,0-.127.127-.191.191s-.064.127-.127.255Zm.828-1.846a.574.574,0,0,0-.064-.318c-.064-.064-.064-.191-.127-.191a.318.318,0,0,0-.382,0c-.064.064-.127.064-.127.127a.234.234,0,0,0-.064.191.234.234,0,0,0,.064.191c0,.064.064.127.127.191l.191.191c.064.064.191.191.255.191a.916.916,0,0,1,.127-.191.234.234,0,0,0,.064-.191A.234.234,0,0,1,38.664,5.755Z" transform="translate(-34.972 -4.8)" fill="#ffd100"/>
          <path id="Path_33" data-name="Path 33" d="M41.427,8.4c.127,0,.191-.064.318-.064.064-.064.191-.064.255-.127s.127-.064.191-.127l.191-.191c.064-.064.064-.127.127-.191a.234.234,0,0,0,.064-.191V7c0-.064-.064-.127-.127-.191l-.127-.127a.234.234,0,0,0-.191-.064h-.573a1.3,1.3,0,0,0,.064-.318c0-.127.064-.191.064-.318a.574.574,0,0,1,.064-.318.383.383,0,0,1,.064-.255.383.383,0,0,1,.064-.255V4.9h1.591v.764H43.4a1.3,1.3,0,0,1-.318-.064H41.937c0,.127,0,.191-.064.255a.481.481,0,0,1-.064.255h.509c.127,0,.191.064.255.064s.127.064.191.127.127.064.191.127.064.127.127.191c0,.064.064.127.064.255v.509c0,.064-.064.127-.064.255,0,.064-.064.127-.127.191s-.064.127-.127.191l-.191.191c-.064.064-.127.127-.191.127-.064.064-.127.064-.255.127-.064.064-.191.064-.255.127-.127,0-.191.064-.318.064a.477.477,0,0,0-.318.064A.35.35,0,0,0,41.427,8.4Z" transform="translate(-36.462 -4.836)" fill="#ffd100"/>
          <path id="Path_34" data-name="Path 34" d="M45.327,6.655V6.4a.383.383,0,0,1,.064-.255c0-.064.064-.191.064-.255s.064-.191.064-.255c.064-.064.064-.191.127-.255l.191-.191c.064-.064.127-.127.191-.127,0-.064.064-.064.127-.064h.191a.481.481,0,0,1,.255.064c.064,0,.127.064.191.064.064.064.127.064.191.127s.127.127.127.191c.064.064.064.127.127.191s.064.191.127.255a2.757,2.757,0,0,1,.064.318v.7a2.757,2.757,0,0,1-.064.318c0,.127-.064.191-.127.318-.064.064-.064.191-.127.255l-.191.191c-.064.064-.127.127-.191.127a.234.234,0,0,1-.191.064h-.509c-.064,0-.127-.064-.191-.064-.064-.064-.127-.064-.191-.127s-.127-.127-.127-.191c-.064-.064-.064-.127-.127-.255-.064-.064-.064-.191-.127-.255,0-.127-.064-.191-.064-.318C45.327,6.91,45.327,6.782,45.327,6.655Zm1.528.191V6.019a.574.574,0,0,0-.064-.318c0-.064-.064-.191-.064-.255s-.064-.127-.064-.191l-.127-.127c-.064,0-.064-.064-.127-.064s-.127,0-.127.064c-.064,0-.064.064-.127.127,0,.064-.064.127-.064.255a2.757,2.757,0,0,0-.064.318V7.1a.574.574,0,0,0,.064.318c0,.064.064.191.064.255s.064.127.064.191l.127.127c.064,0,.064.064.127.064s.127,0,.127-.064c.064,0,.064-.064.127-.127,0-.064.064-.127.064-.255a2.757,2.757,0,0,0,.064-.318C46.791,7.164,46.855,6.973,46.855,6.846Z" transform="translate(-37.879 -4.873)" fill="#ffd100"/>
        </g>
      </g>
      <g id="Group_7" data-name="Group 7" transform="translate(22.801 29.602)">
        <path id="Path_35" data-name="Path 35" d="M41.831,48.227c-.064-.064-.127-.127-.191-.127l-.764.064a7.571,7.571,0,0,1-.891.255c-.064.191,0,.255.064.446,0,.064.064.191.064.255l.509.064a1.12,1.12,0,0,0,.382.064h.573v-.064C41.64,48.991,41.958,48.418,41.831,48.227Z" transform="translate(-37.322 -48.1)" fill="#003b71"/>
        <path id="Path_36" data-name="Path 36" d="M41.46,60.628a.234.234,0,0,1-.191-.064l-.064.318-.064.637c.064,0,.127.064.191.127h0a.49.49,0,0,1-.064.637,1.906,1.906,0,0,1-.509.255v-.318c0-.318.064-.509.064-.764,0-.191.064-.382.064-.637,0-.064.064-.255.064-.382,0-.191.064-.382,0-.509,0-.064-.064-.064-.064-.127H39.741c0,.064.064.191.064.255v.064c0,.191.064.446.064.637,0,.127.064.382,0,.509h0a1.859,1.859,0,0,0-.127.573c0,.255.064.318.064.573V62.6a1.2,1.2,0,0,1-.828-.446c-.127-.318.191-.573,0-.637-.127-.064-.446.255-.382.7a1.066,1.066,0,0,0,.637.764,1.521,1.521,0,0,0,.573.191.944.944,0,0,0,.064.446c.064.127,0,.318.127.382.064.064.127.064.255.127.255-.127.318-.573.318-.764v-.127a1.564,1.564,0,0,0,.955-.318,1.415,1.415,0,0,0,.7-1.4C42.287,61.01,41.906,60.755,41.46,60.628Z" transform="translate(-36.824 -52.352)" fill="#003b71"/>
        <path id="Path_37" data-name="Path 37" d="M41.619,54.375c-.064-.127-.127-.127-.191-.255-.127-.127-.064-.446-.064-.637v-.509l-.255-.064a1.18,1.18,0,0,0-.446-.127,1.265,1.265,0,0,0-.509,0,1.88,1.88,0,0,1-.127.828c-.064.127-.127.191-.127.255v.127c.064.191.064.318.127.509a2.167,2.167,0,0,1,.127.891v.255a1.762,1.762,0,0,0,.573-.064H41.3V55.33a2.251,2.251,0,0,0,.064-.382C41.619,54.566,41.619,54.439,41.619,54.375Z" transform="translate(-37.301 -49.792)" fill="#003b71"/>
        <path id="Path_38" data-name="Path 38" d="M42.872,51.018a.234.234,0,0,0-.064-.191,2.661,2.661,0,0,0-.637-.255,1.076,1.076,0,0,1-.382-.191,1.584,1.584,0,0,0-.446-.191,2.035,2.035,0,0,0-.955.127c-.064,0-.127.064-.191.064h-.573a5.768,5.768,0,0,1-1.019-.127h-.064a2.762,2.762,0,0,0-1.846.509,1.9,1.9,0,0,0-.764,2.228,1.477,1.477,0,0,0,.509.828,2.339,2.339,0,0,0,1.591.446h.573a3.2,3.2,0,0,0-.127-.764v-.064c-.064-.127-.064-.318-.127-.446v-.064h-.318a.606.606,0,0,1-.573-.764c.064-.382.255-.509.7-.7a1.883,1.883,0,0,1,.637-.127h.764a5.346,5.346,0,0,1,.764.255c.064,0,.064,0,.127.064a4.556,4.556,0,0,0,1.082.064A10.812,10.812,0,0,0,43,51.4C42.872,51.336,42.872,51.018,42.872,51.018Zm-1.464-.255a.331.331,0,0,1-.255.127c-.127,0-.255-.127-.191-.255,0-.064.127-.127.318-.127h.064c.064,0,.191.127.255.318A.234.234,0,0,1,41.408,50.763Z" transform="translate(-35.817 -48.853)" fill="#003b71"/>
        <path id="Path_39" data-name="Path 39" d="M42.826,54.355a1.874,1.874,0,0,0-1.464-.955h-.446v.7l.064.064a1.392,1.392,0,0,1,.191.318V54.8h.191c.064,0,.191.064.191.127a.524.524,0,0,1-.064.828,4.757,4.757,0,0,1-.7.127h-.7c-.318,0-.573.064-.828.064a.383.383,0,0,0-.255.064,1.585,1.585,0,0,0-1.337,1.019c-.255.828.446,1.337,1.146,1.591.064,0,.064,0,.127.064.064,0,.127.064.191.064s.127.064.255.064v-.255l-.064-.255c0-.127-.064-.255-.064-.382v-.127H39.2c-.064,0-.064-.064-.127-.064q-.191-.1-.191-.191c0-.127.127-.255.318-.318a3.9,3.9,0,0,1,1.146-.064h.446a3.1,3.1,0,0,0,.764-.064,1.868,1.868,0,0,0,.637-.191,1.9,1.9,0,0,0,.955-.955A3.461,3.461,0,0,0,42.826,54.355Z" transform="translate(-36.471 -50.026)" fill="#003b71"/>
      </g>
      <path id="Path_40" data-name="Path 40" d="M55.539,19.284a4.867,4.867,0,0,1-.7-2.228V15.719h.255v.318c.064.064.127.064.255.064a.653.653,0,0,0,0-1.273c-.064,0-.191.064-.255.064v.318h-.255V14H53.63v1.21h-.637v-.064a.191.191,0,1,0-.382,0v.064h-.637v-.064a.191.191,0,1,0-.382,0v.064h-.637v-.064a.191.191,0,0,0-.382,0v.064h-.637V14h-1.21v1.21h-.191v-.318c-.064-.064-.127-.064-.255-.064a.653.653,0,0,0,0,1.273c.064,0,.191-.064.255-.064v-.318h.255v1.337a4.491,4.491,0,0,1-.7,2.228,5.286,5.286,0,0,0-.127,3.438,11.871,11.871,0,0,0,.828,2.164h5.984a8.535,8.535,0,0,0,.828-2.164A4.77,4.77,0,0,0,55.539,19.284Zm-2.865-3.565v5.857c-.191.064-.446.064-.637.127V15.719Zm-1.019,7.7c-.255,0-.446-.064-.637-.064V22.212a2.166,2.166,0,0,1,.637-.064Zm.318-1.273a1.962,1.962,0,0,1,.637.064v1.146a2.166,2.166,0,0,1-.637.064Zm-.318-6.43V21.7a1.883,1.883,0,0,1-.637-.127V15.719Zm-2.292,4.2A1.519,1.519,0,0,1,50,18.774V15.719h.637v5.729A1.8,1.8,0,0,1,49.364,19.92Zm.7,2.865c0-.191.255-.382.573-.446v.955C50.256,23.167,50.065,22.976,50.065,22.785Zm2.928.509v-.955c.382.127.637.318.637.509C53.63,22.976,53.375,23.167,52.993,23.294Zm0-1.846V15.719h.637v3.056a1.519,1.519,0,0,1,.637,1.146A1.8,1.8,0,0,1,52.993,21.448Z" transform="translate(-17.344 -6.106)" fill="#003b71"/>
      <path id="Path_41" data-name="Path 41" d="M7.873,33.943l-.573.064V35.98a25.854,25.854,0,0,0,.891,6.366l.191.637.573-.064a151.561,151.561,0,0,1,20.053-1.082A151.561,151.561,0,0,1,49.06,42.919l.573.064.127-.573a26.218,26.218,0,0,0,.891-6.366V34.071l-.573-.064A147.405,147.405,0,0,0,28.944,32.8,140.575,140.575,0,0,0,7.873,33.943Z" transform="translate(-2.653 -12.936)" fill="#003b71"/>
      <path id="Path_42" data-name="Path 42" d="M13.237,23.443V8.61s-.191-.382-.255-.573c2.737-.382,6.875-.828,11.522-1.082V6.319c-4.583.191-8.658.637-11.65,1.019l-.828.127.382.764s.127.318.191.446V23.443A2.122,2.122,0,0,0,13.237,23.443ZM35.773,5.3v.637c5.6.255,10.44.891,13.05,1.21-.318.7-.7,1.655-.7,1.655V23.57c.191,0,.446.064.637.064V8.929s.637-1.4,1.019-2.292C47.613,6.319,42.139,5.618,35.773,5.3Zm-19.1,32.148a24.467,24.467,0,0,1-2.292-5.029c-.255,0-.446.064-.637.064a25.176,25.176,0,0,0,2.419,5.284A30.032,30.032,0,0,0,29.789,49.607l.127.064.318.127.382-.191h0A29.353,29.353,0,0,0,44.239,37.766a23.8,23.8,0,0,0,2.419-5.284c-.191,0-.446-.064-.637-.064a28.417,28.417,0,0,1-2.292,5.029A29.2,29.2,0,0,1,30.362,49.034a.159.159,0,0,1-.255,0h0A28.432,28.432,0,0,1,16.675,37.448ZM47.422,7.4c-2.992-.382-7.066-.828-11.65-1.082v.637c4.647.255,8.849.7,11.586,1.082-.064.191-.255.573-.255.573V23.443c.191,0,.446.064.637.064V8.738c.064-.127.573-1.21.573-1.21ZM44.494,37.957A30.046,30.046,0,0,1,30.68,49.925s-.318.127-.573.255c-.255-.127-.573-.255-.573-.255A30.046,30.046,0,0,1,15.72,37.957a28.478,28.478,0,0,1-2.483-5.411c-.255,0-.446.064-.637.064a28.921,28.921,0,0,0,2.546,5.729A30.723,30.723,0,0,0,29.279,50.562a6.292,6.292,0,0,1,.828.382c.318-.127.828-.382.828-.382A31.044,31.044,0,0,0,45.067,38.339a24.432,24.432,0,0,0,2.546-5.729c-.191,0-.446-.064-.637-.064A22.283,22.283,0,0,1,44.494,37.957ZM24.505,5.937V5.3C18.139,5.618,12.664,6.319,10.5,6.637c.382.891,1.019,2.292,1.019,2.292V23.57c.191,0,.446-.064.637-.064V8.8s-.446-.955-.7-1.655C14.065,6.828,18.967,6.191,24.505,5.937Z" transform="translate(-3.816 -2.945)" fill="#ffd100"/>
      <path id="Path_43" data-name="Path 43" d="M29.408,33.8A143.76,143.76,0,0,0,8.4,35.01v1.4a24.707,24.707,0,0,0,.891,6.239,155.168,155.168,0,0,1,20.116-1.082,155.168,155.168,0,0,1,20.116,1.082,24.03,24.03,0,0,0,.891-6.239v-1.4A143.76,143.76,0,0,0,29.408,33.8Z" transform="translate(-3.053 -13.302)" fill="#ffd100"/>
      <g id="Group_8" data-name="Group 8" transform="translate(7.257 21.581)">
        <path id="Path_44" data-name="Path 44" d="M11.4,41.893c.509-.191.7-.318.764-.509.064-.255.064-.573.127-.955.064-1.973.064-2.992.064-3.119,0-.382-.127-.382-.7-.509v-.127h.573a6.62,6.62,0,0,0,.955-.127c.573,1.21,1.273,2.419,2.037,3.756.509-1.4,1.019-2.737,1.464-4.074h.764a3.811,3.811,0,0,0,.764-.127v.127c-.637.191-.764.255-.7.573a16,16,0,0,0,.382,1.91c.255,1.082.382,1.782.509,2.1.064.191.318.255.764.382v.127H18.084a5.146,5.146,0,0,0-1.273.191v-.127c.7-.255.828-.255.764-.573a37.907,37.907,0,0,0-.764-3.82c-.509,1.4-1.082,2.992-1.528,4.647l-.318.127q-1.241-2.483-2.292-4.392c-.064,2.164,0,3.438,0,3.82.064.446.127.382.828.573v.127H12.482a6.348,6.348,0,0,0-1.019.127Z" transform="translate(-11.4 -35.718)" fill="#003b71"/>
        <path id="Path_45" data-name="Path 45" d="M24.118,41.075a1.936,1.936,0,0,0,.764-.382,8.231,8.231,0,0,0-.064-2.164,11.4,11.4,0,0,0-.191-2.164c-.064-.127-.318-.191-.828-.318v-.191a4.159,4.159,0,0,0,.891,0c.318,0,.637-.064.955-.064a6.176,6.176,0,0,0,1.082-.064,7.8,7.8,0,0,0,1.21-.127L28,36.873h-.127c-.127-.446-.255-.764-.382-.764a2.616,2.616,0,0,0-1.082,0,6.547,6.547,0,0,0-1.082.064c0,.382,0,1.082.064,2.037l.7-.064a7.22,7.22,0,0,0,1.21-.127,2.308,2.308,0,0,0,.318-.764h.127v.891c0,.191.064.509.064,1.019h-.127q-.191-.668-.382-.764a3.266,3.266,0,0,0-1.21,0l-.7.064v.509c.064.764.064,1.4.127,1.782h1.019a3.784,3.784,0,0,0,1.21-.191,2.936,2.936,0,0,0,.318-.891h.127v1.337c-1.273,0-2.164.064-2.61.064a13.4,13.4,0,0,0-1.591.127Z" transform="translate(-15.906 -35.536)" fill="#003b71"/>
        <path id="Path_46" data-name="Path 46" d="M32.591,40.82a1.936,1.936,0,0,0,.764-.382,9.913,9.913,0,0,0,0-2.164,9.19,9.19,0,0,0-.127-2.164c-.064-.127-.318-.255-.828-.318v-.127a9.013,9.013,0,0,0,1.21.064,11.223,11.223,0,0,0,1.21-.127v.127q-.668.191-.764.382a9.914,9.914,0,0,0,0,2.164c0,.637.064,1.4.064,2.292h.764a3.261,3.261,0,0,0,1.21-.127,1.92,1.92,0,0,0,.382-.891H36.6l-.064,1.337h-2.61c-.446,0-.891.064-1.337.064Z" transform="translate(-19.032 -35.536)" fill="#003b71"/>
        <path id="Path_47" data-name="Path 47" d="M40.3,40.72c.446-.127.764-.255.764-.382a12.5,12.5,0,0,0,.064-2.164,12.5,12.5,0,0,0-.064-2.164q-.1-.191-.764-.382V35.5a11.522,11.522,0,0,0,2.419,0v.127c-.446.127-.764.255-.764.382a12.5,12.5,0,0,0-.064,2.164,13.029,13.029,0,0,0,.064,2.164,1.936,1.936,0,0,0,.764.382v.127a11.522,11.522,0,0,0-2.419,0Z" transform="translate(-21.902 -35.5)" fill="#003b71"/>
        <path id="Path_48" data-name="Path 48" d="M49.856,40.211a2.38,2.38,0,0,1-1.973.828,2.27,2.27,0,0,1-1.782-.828,3.159,3.159,0,0,1-.7-2.037,2.774,2.774,0,0,1,.7-1.846,2.464,2.464,0,0,1,1.973-.828,2.27,2.27,0,0,1,1.782.828,3,3,0,0,1,.7,2.1A2.736,2.736,0,0,1,49.856,40.211ZM48.01,35.755c-1.082-.064-1.782.764-1.782,2.228-.064,1.719.573,2.737,1.719,2.737,1.082.064,1.782-.764,1.782-2.164C49.792,36.773,49.156,35.818,48.01,35.755Z" transform="translate(-23.756 -35.5)" fill="#003b71"/>
        <path id="Path_49" data-name="Path 49" d="M59.556,41.311h0l.064.127c-.191,0-.382-.064-.573-.064h-.573c-.509-1.019-1.019-1.91-1.528-2.737h-.7v.509a6.4,6.4,0,0,0-.191,1.464c0,.255.255.318.764.573v.127a11.224,11.224,0,0,0-1.21-.127H54.4v-.127a2.272,2.272,0,0,0,.828-.318,11.4,11.4,0,0,0,.191-2.164,14.022,14.022,0,0,0,.064-2.164q-.1-.191-.764-.382V35.9a3.124,3.124,0,0,0,.7.064c.7.064,1.273,0,1.782.064,1.273.064,1.91.573,1.846,1.337-.064.637-.509,1.019-1.4,1.21C58.6,40.356,58.983,41.311,59.556,41.311Zm-3.374-2.992.573.064q1.528.1,1.528-.955c.064-.764-.446-1.082-1.528-1.146H56.31C56.246,36.982,56.182,37.682,56.182,38.319Z" transform="translate(-27.027 -35.645)" fill="#003b71"/>
        <path id="Path_50" data-name="Path 50" d="M62.364,41.556c.382-.064.573-.127.7-.318.191-.255,1.082-1.91,2.61-4.838H65.8c.891,2.992,1.4,4.711,1.591,5.156.064.255.318.318.7.509v.127c-.509-.127-.955-.127-1.21-.191h-1.21v-.127c.509-.064.828-.191.828-.255a4.246,4.246,0,0,0-.382-1.337l-2.037-.191a4.244,4.244,0,0,0-.573,1.337c0,.127.191.255.7.382v.127a6.621,6.621,0,0,0-.955-.127H62.3Zm3.756-1.719a22.6,22.6,0,0,0-.7-2.292,22.331,22.331,0,0,0-1.146,2.164Z" transform="translate(-29.897 -35.827)" fill="#003b71"/>
      </g>
    </g>
  </g>
</svg>
